<mxfile host="app.diagrams.net" modified="2023-12-13T14:33:38.132Z" agent="Mozilla/5.0 (X11; Linux x86_64; rv:109.0) Gecko/20100101 Firefox/115.0" version="22.1.8" etag="AhEIz64jYh97pxZV2b8C" type="github">
  <diagram name="Page-1" id="i0JCT_QxL1okFDHxFozZ">
    <mxGraphModel>
      <root>
        <mxCell id="0" />
        <mxCell id="1" parent="0" />
      </root>
    </mxGraphModel>
  </diagram>
</mxfile>
